<svg width="60" height="30" viewBox="0 0 58 28" fill="none" xmlns="http://www.w3.org/2000/svg">
<path d="M33.3221 18.2615C33.2997 18.2615 33.2773 18.2615 33.2773 18.2615C33.6134 17.4308 33.8151 16.5308 33.8151 15.5846C33.8151 11.8462 30.8796 8.82308 27.2493 8.82308C25.972 8.82308 24.7619 9.21538 23.7535 9.86154C22.3641 6.42308 19.1148 4 15.2829 4C10.2185 4 6.14006 8.22308 6.14006 13.4154C6.14006 13.8077 6.16246 14.2 6.20728 14.5692C6.18487 14.5692 6.16247 14.5692 6.14006 14.5692C2.73389 14.5692 0 17.4077 0 20.8923C0 24.3769 2.73389 27.2154 6.14006 27.2154H33.3221C35.7199 27.2154 37.6695 25.2077 37.6695 22.7385C37.6695 20.2692 35.7199 18.2615 33.3221 18.2615Z" fill="#1779C4"/>
<path d="M53.3221 14.2615C53.2997 14.2615 53.2773 14.2615 53.2773 14.2615C53.6134 13.4308 53.8151 12.5308 53.8151 11.5846C53.8151 7.84615 50.8796 4.82308 47.2493 4.82308C45.972 4.82308 44.7619 5.21538 43.7535 5.86154C42.3641 2.42308 39.1148 0 35.2829 0C30.2185 0 26.1401 4.22308 26.1401 9.41538C26.1401 9.80769 26.1625 10.2 26.2073 10.5692C26.1849 10.5692 26.1625 10.5692 26.1401 10.5692C22.7339 10.5692 20 13.4077 20 16.8923C20 20.3769 22.7339 23.2154 26.1401 23.2154H53.3221C55.7199 23.2154 57.6695 21.2077 57.6695 18.7385C57.6695 16.2692 55.7199 14.2615 53.3221 14.2615Z" fill="#1779C4"/>
</svg>
