<svg width="18" height="18" viewBox="0 0 16 16" fill="none" xmlns="http://www.w3.org/2000/svg">
<path d="M3.52859 9.9731C3.26824 10.2335 3.26824 10.6556 3.52859 10.9159C3.78894 11.1763 4.21105 11.1763 4.4714 10.9159L6.71184 8.67547L7.57831 9.38308C7.85057 9.60543 8.2487 9.57818 8.48812 9.3208L10.6686 6.97683L11.5136 7.87824C11.7655 8.14685 12.1873 8.16046 12.456 7.90864C12.7246 7.65682 12.7382 7.23493 12.4864 6.96632L11.153 5.5441C11.0267 5.40934 10.8501 5.33304 10.6654 5.3334C10.4806 5.33375 10.3044 5.41074 10.1785 5.54599L7.93758 7.95502L7.08835 7.26148C6.82325 7.04499 6.43728 7.06441 6.19526 7.30643L3.52859 9.9731Z" fill="#036B26"/>
<path fill-rule="evenodd" clip-rule="evenodd" d="M3.33333 2C1.86057 2 0.666664 3.19391 0.666664 4.66667V11.3333C0.666664 12.8061 1.86057 14 3.33333 14H12.6667C14.1394 14 15.3333 12.8061 15.3333 11.3333V4.66667C15.3333 3.19391 14.1394 2 12.6667 2H3.33333ZM2 4.66667C2 3.93029 2.59695 3.33333 3.33333 3.33333H12.6667C13.403 3.33333 14 3.93029 14 4.66667V11.3333C14 12.0697 13.403 12.6667 12.6667 12.6667H3.33333C2.59695 12.6667 2 12.0697 2 11.3333V4.66667Z" fill="#036B26"/>
</svg>
