<svg width="18" height="18" viewBox="0 0 16 16" fill="none" xmlns="http://www.w3.org/2000/svg">
<path d="M3.52859 6.4714C3.26824 6.21105 3.26824 5.78894 3.52859 5.52859C3.78893 5.26824 4.21104 5.26824 4.47139 5.52859L6.71183 7.76903L7.5783 7.06142C7.85056 6.83907 8.24869 6.86632 8.48811 7.1237L10.6686 9.46767L11.5136 8.56625C11.7655 8.29765 12.1873 8.28404 12.4559 8.53586C12.7246 8.78768 12.7382 9.20957 12.4863 9.47818L11.153 10.9004C11.0267 11.0352 10.8501 11.1115 10.6654 11.1111C10.4806 11.1107 10.3043 11.0338 10.1785 10.8985L7.93757 8.48948L7.08835 9.18301C6.82325 9.39951 6.43727 9.38008 6.19525 9.13806L3.52859 6.4714Z" fill="#D42620"/>
<path fill-rule="evenodd" clip-rule="evenodd" d="M3.33332 2C1.86056 2 0.666656 3.19391 0.666656 4.66667V11.3333C0.666656 12.8061 1.86056 14 3.33332 14H12.6667C14.1394 14 15.3333 12.8061 15.3333 11.3333V4.66667C15.3333 3.19391 14.1394 2 12.6667 2H3.33332ZM1.99999 4.66667C1.99999 3.93029 2.59694 3.33333 3.33332 3.33333H12.6667C13.403 3.33333 14 3.93029 14 4.66667V11.3333C14 12.0697 13.403 12.6667 12.6667 12.6667H3.33332C2.59694 12.6667 1.99999 12.0697 1.99999 11.3333V4.66667Z" fill="#D42620"/>
</svg>
