<svg width="56" height="40" viewBox="0 0 48 35" fill="none" xmlns="http://www.w3.org/2000/svg">
<path d="M26.1494 16.3094C25.6713 13.3817 27.6519 10.6199 30.5732 10.1408C33.4945 9.66175 36.2502 11.6467 36.7282 14.5744C37.2063 17.5021 35.2256 20.2639 32.3044 20.743C29.3831 21.2221 26.6274 19.2371 26.1494 16.3094Z" fill="#FFDC7B"/>
<path d="M31.4399 8.03757C31.7903 8.03757 32.0789 7.74834 32.0789 7.39713V2.7901C32.0789 2.43889 31.7903 2.14966 31.4399 2.14966C31.0894 2.14966 30.8008 2.43889 30.8008 2.7901V7.37647C30.8008 7.74834 31.0894 8.03757 31.4399 8.03757Z" fill="#FFDC7B"/>
<path d="M31.4399 28.7379C31.7903 28.7379 32.0789 28.4486 32.0789 28.0974V23.511C32.0789 23.1598 31.7903 22.8706 31.4399 22.8706C31.0894 22.8706 30.8008 23.1598 30.8008 23.511V28.0974C30.8008 28.4486 31.0894 28.7379 31.4399 28.7379Z" fill="#FFDC7B"/>
<path d="M26.2041 10.2064C26.4514 9.95847 26.4514 9.54528 26.2041 9.29737L22.9677 6.05385C22.7203 5.80594 22.308 5.80594 22.0606 6.05385C21.8133 6.30177 21.8133 6.71495 22.0606 6.96286L25.297 10.2064C25.5444 10.4543 25.9567 10.4543 26.2041 10.2064Z" fill="#FFDC7B"/>
<path d="M40.8194 24.8536C41.0668 24.6057 41.0668 24.1925 40.8194 23.9446L37.583 20.7011C37.3356 20.4532 36.9234 20.4532 36.676 20.7011C36.4286 20.949 36.4286 21.3622 36.676 21.6101L39.9124 24.8536C40.1598 25.1015 40.572 25.1015 40.8194 24.8536Z" fill="#FFDC7B"/>
<path d="M24.0394 15.4539C24.0394 15.1027 23.7508 14.8135 23.4004 14.8135H18.8241C18.4736 14.8135 18.185 15.1027 18.185 15.4539C18.185 15.8051 18.4736 16.0944 18.8241 16.0944H23.4004C23.7508 16.0944 24.0394 15.8051 24.0394 15.4539Z" fill="#FFDC7B"/>
<path d="M44.7154 15.4539C44.7154 15.1027 44.4268 14.8135 44.0764 14.8135H39.5C39.1496 14.8135 38.861 15.1027 38.861 15.4539C38.861 15.8051 39.1496 16.0944 39.5 16.0944H44.0764C44.4268 16.0944 44.7154 15.8051 44.7154 15.4539Z" fill="#FFDC7B"/>
<path d="M26.204 20.7013C25.9567 20.4534 25.5444 20.4534 25.297 20.7013L22.0606 23.9448C21.8133 24.1927 21.8133 24.6059 22.0606 24.8538C22.308 25.1018 22.7203 25.1018 22.9676 24.8538L26.204 21.6103C26.472 21.3624 26.472 20.9492 26.204 20.7013Z" fill="#FFDC7B"/>
<path d="M40.8194 6.05385C40.572 5.80594 40.1598 5.80594 39.9124 6.05385L36.676 9.29737C36.4286 9.54528 36.4286 9.95847 36.676 10.2064C36.9234 10.4543 37.3356 10.4543 37.583 10.2064L40.8194 6.96286C41.0668 6.71495 41.0668 6.30177 40.8194 6.05385Z" fill="#FFDC7B"/>
<path d="M6.86811 24.8541C6.88872 24.8541 6.90934 24.8541 6.90934 24.8541C6.60013 24.1103 6.4146 23.3046 6.4146 22.4576C6.4146 19.1108 9.11504 16.4044 12.4545 16.4044C13.6295 16.4044 14.7427 16.7556 15.6703 17.3341C16.9278 14.2558 19.9374 12.1073 23.4624 12.1073C28.1212 12.0866 31.8729 15.8673 31.8729 20.5156C31.8729 20.8668 31.8523 21.218 31.8111 21.5486C31.8317 21.5486 31.8523 21.5486 31.8729 21.5486C34.9857 21.5486 37.5212 24.0897 37.5212 27.2092C37.5212 30.3288 34.9857 32.8699 31.8729 32.8699H6.86811C4.6624 32.8699 2.86898 31.0725 2.86898 28.862C2.86898 26.6308 4.6624 24.8541 6.86811 24.8541Z" fill="#2561A1"/>
</svg>
