<svg width="70" height="28" viewBox="0 0 65 24" fill="none" xmlns="http://www.w3.org/2000/svg">
<circle cx="1" cy="12" r="0.5" fill="#09121E"/>
<circle cx="5" cy="12" r="1.5" fill="#09121E"/>
<circle cx="11" cy="12" r="2.5" fill="#09121E"/>
<path d="M42.5 12C42.5 13.1046 41.6046 14 40.5 14H37.0352C36.7008 14 36.3886 14.1671 36.2031 14.4453L32.7969 19.5547C32.6114 19.8329 32.2992 20 31.9648 20H29.8874C29.2049 20 28.7229 19.3313 28.9387 18.6838L30.0613 15.3162C30.2771 14.6687 29.7951 14 29.1126 14H26.9142C26.649 14 26.3946 14.1054 26.2071 14.2929L24.2071 16.2929C23.5771 16.9229 22.5 16.4767 22.5 15.5858V14.1231C22.5 14.0413 22.51 13.9599 22.5299 13.8806L22.9394 12.2425C22.9792 12.0833 22.9792 11.9167 22.9394 11.7575L22.5299 10.1194C22.51 10.0401 22.5 9.95865 22.5 9.87689V8.41421C22.5 7.52331 23.5771 7.07714 24.2071 7.70711L26.2071 9.70711C26.3946 9.89464 26.649 10 26.9142 10H29.1126C29.7951 10 30.2771 9.3313 30.0613 8.68377L28.9387 5.31623C28.7229 4.6687 29.2049 4 29.8874 4H31.9648C32.2992 4 32.6114 4.1671 32.7969 4.4453L36.2031 9.5547C36.3886 9.8329 36.7008 10 37.0352 10H40.5C41.6046 10 42.5 10.8954 42.5 12Z" fill="#09121E"/>
<circle cx="54" cy="12" r="2.5" fill="#09121E"/>
<circle cx="60" cy="12" r="1.5" fill="#09121E"/>
<circle cx="64" cy="12" r="0.5" fill="#09121E"/>
</svg>
