<svg width="45" height="50" viewBox="0 0 40 45" fill="none" xmlns="http://www.w3.org/2000/svg">
<path d="M34.8907 15.0462C34.8683 15.0462 34.8459 15.0462 34.8459 15.0462C35.182 14.2154 35.3837 13.3154 35.3837 12.3693C35.3837 8.63082 32.4482 5.60774 28.8179 5.60774C27.5406 5.60774 26.3305 6.00005 25.3221 6.64621C23.9327 3.20774 20.6834 0.784668 16.8515 0.784668C11.7871 0.784668 7.70866 5.00774 7.70866 10.2001C7.70866 10.5924 7.73107 10.9847 7.77589 11.3539C7.75348 11.3539 7.73107 11.3539 7.70866 11.3539C4.3025 11.3539 1.5686 14.1924 1.5686 17.677C1.5686 21.1616 4.3025 24.0001 7.70866 24.0001H34.8907C37.2885 24.0001 39.2381 21.9924 39.2381 19.5231C39.2381 17.0539 37.2885 15.0462 34.8907 15.0462Z" fill="#1779C4"/>
<path d="M9.72552 35.0307C8.98602 36.623 7.14849 37.2692 5.60227 36.5307C4.05605 35.7692 3.4286 33.8768 4.14569 32.2845C4.88518 30.6922 9.65829 27.8076 9.65829 27.8076C9.65829 27.8076 10.465 33.4615 9.72552 35.0307Z" fill="#1779C4"/>
<path d="M22.8753 35.2231C22.1358 36.8154 20.2983 37.4615 18.7521 36.7231C17.2058 35.9615 16.5784 34.0692 17.2955 32.4769C18.035 30.8846 22.8081 28 22.8081 28C22.8081 28 23.6148 33.6538 22.8753 35.2231Z" fill="#1779C4"/>
<path d="M36.6387 35.0307C35.8992 36.623 34.0616 37.2692 32.5154 36.5307C30.9692 35.7692 30.3417 33.8768 31.0588 32.2845C31.7983 30.6922 36.5714 27.8076 36.5714 27.8076C36.5714 27.8076 37.3782 33.4615 36.6387 35.0307Z" fill="#1779C4"/>
</svg>
