<svg width="52" height="55" viewBox="0 0 48 51" fill="none" xmlns="http://www.w3.org/2000/svg">
<path d="M28.2719 33.4364C32.6276 31.2691 34.3897 26.0049 32.2077 21.6785C30.0258 17.352 24.726 15.6017 20.3703 17.7691C16.0147 19.9364 14.2525 25.2006 16.4345 29.5271C18.6165 33.8535 23.9163 35.6038 28.2719 33.4364Z" fill="#F8CA4D"/>
<path d="M24.3206 13.4961C23.7413 13.4961 23.2674 13.0254 23.2674 12.45V4.96998C23.2674 4.3946 23.7413 3.92383 24.3206 3.92383C24.8999 3.92383 25.3738 4.3946 25.3738 4.96998V12.45C25.3738 13.0254 24.8999 13.4961 24.3206 13.4961Z" fill="#F8CA4D"/>
<path d="M24.3206 47.2872C23.7413 47.2872 23.2674 46.8164 23.2674 46.241V38.761C23.2674 38.1856 23.7413 37.7148 24.3206 37.7148C24.8999 37.7148 25.3738 38.1856 25.3738 38.761V46.241C25.3738 46.8164 24.8999 47.2872 24.3206 47.2872Z" fill="#F8CA4D"/>
<path d="M32.9305 17.0533C32.5092 16.6348 32.5092 15.981 32.9305 15.5625L38.2493 10.2533C38.6706 9.83484 39.3288 9.83484 39.7501 10.2533C40.1714 10.6718 40.1714 11.3256 39.7501 11.7441L34.4314 17.0271C34.0101 17.4456 33.3518 17.4456 32.9305 17.0533Z" fill="#F8CA4D"/>
<path d="M8.86461 40.9314C8.44332 40.513 8.44332 39.8591 8.86461 39.4407L14.1834 34.1576C14.6047 33.7391 15.2629 33.7391 15.6842 34.1576C16.1055 34.5761 16.1055 35.2299 15.6842 35.6484L10.3655 40.9314C9.94416 41.3499 9.2859 41.3499 8.86461 40.9314Z" fill="#F8CA4D"/>
<path d="M36.4852 25.6047C36.4852 25.0294 36.9591 24.5586 37.5384 24.5586H45.0953C45.6745 24.5586 46.1485 25.0294 46.1485 25.6047C46.1485 26.1801 45.6745 26.6509 45.0953 26.6509H37.5647C36.9591 26.6509 36.4852 26.1801 36.4852 25.6047Z" fill="#F8CA4D"/>
<path d="M2.46613 25.6047C2.46613 25.0294 2.94008 24.5586 3.51935 24.5586H11.0499C11.6291 24.5586 12.1031 25.0294 12.1031 25.6047C12.1031 26.1801 11.6291 26.6509 11.0499 26.6509H3.51935C2.94008 26.6509 2.46613 26.1801 2.46613 25.6047Z" fill="#F8CA4D"/>
<path d="M32.9305 34.1576C33.3518 33.7391 34.0101 33.7391 34.4314 34.1576L39.7501 39.4407C40.1714 39.8591 40.1714 40.513 39.7501 40.9314C39.3288 41.3499 38.6706 41.3499 38.2493 40.9314L32.9305 35.6484C32.5092 35.2299 32.5092 34.5761 32.9305 34.1576Z" fill="#F8CA4D"/>
<path d="M8.86461 10.2533C9.2859 9.83484 9.94416 9.83484 10.3655 10.2533L15.6842 15.5364C16.1055 15.9548 16.1055 16.6087 15.6842 17.0271C15.2629 17.4456 14.6047 17.4456 14.1834 17.0271L8.86461 11.7441C8.44332 11.3518 8.44332 10.6718 8.86461 10.2533Z" fill="#F8CA4D"/>
</svg>
