<svg width="45" height="50" viewBox="0 0 41 45" fill="none" xmlns="http://www.w3.org/2000/svg">
<path d="M34.922 15.0462C34.8996 15.0462 34.8772 15.0462 34.8772 15.0462C35.2133 14.2154 35.415 13.3154 35.415 12.3693C35.415 8.63082 32.4794 5.60774 28.8492 5.60774C27.5718 5.60774 26.3618 6.00005 25.3534 6.64621C23.964 3.20774 20.7147 0.784668 16.8828 0.784668C11.8183 0.784668 7.73991 5.00774 7.73991 10.2001C7.73991 10.5924 7.76232 10.9847 7.80714 11.3539C7.78473 11.3539 7.76232 11.3539 7.73991 11.3539C4.33375 11.3539 1.59985 14.1924 1.59985 17.677C1.59985 21.1616 4.33375 24.0001 7.73991 24.0001H34.922C37.3197 24.0001 39.2693 21.9924 39.2693 19.5231C39.2693 17.0539 37.3197 15.0462 34.922 15.0462Z" fill="#1779C4"/>
<path d="M9.75677 35.0307C9.01727 36.623 7.17974 37.2692 5.63352 36.5307C4.0873 35.7692 3.45985 33.8768 4.17694 32.2845C4.91643 30.6922 9.68954 27.8076 9.68954 27.8076C9.68954 27.8076 10.4963 33.4615 9.75677 35.0307Z" fill="#1779C4"/>
<path d="M36.6699 35.0307C35.9304 36.623 34.0929 37.2692 32.5467 36.5307C31.0004 35.7692 30.373 33.8768 31.0901 32.2845C31.8296 30.6922 36.6027 27.8076 36.6027 27.8076C36.6027 27.8076 37.4094 33.4615 36.6699 35.0307Z" fill="#1779C4"/>
<path d="M16.5467 44.4L25.6671 31.823H20.9613L22.754 26.7H18.0033L15.2021 35.4923H19.0565L16.5467 44.4Z" fill="#FFDC7B"/>
</svg>
